<svg width="225" height="96" viewBox="0 0 225 96" fill="none" xmlns="http://www.w3.org/2000/svg">
<path d="M208.484 95.6732V76.6447H211.76V86.2127L220.631 76.6447H224.654L216.902 84.8272L225 95.6732H221.031L214.664 87.1103L211.759 90.1544V95.6732H208.484V95.6732ZM3.99534 95.6732H0.730469V74.931H8.64279C13.3382 74.931 16.2617 77.6498 16.2617 81.7526V81.8121C16.2617 86.3768 12.6832 88.7834 8.23325 88.7834H3.99534V95.6732V95.6732ZM3.99534 77.9402V85.8046H8.34942C11.1408 85.8046 12.9373 84.1983 12.9373 81.9022V81.8426C12.9373 79.2705 11.1016 77.9402 8.34942 77.9402H3.99534ZM19.5891 95.6732V76.6447H27.9008C30.2463 76.6447 32.0835 77.352 33.2831 78.5473C34.2692 79.5799 34.8284 80.9945 34.8284 82.6516C34.8284 85.8322 32.9897 87.7072 30.3799 88.4682L35.4152 95.6718H31.5519L26.9698 89.039H22.867V95.6718H19.5891V95.6732ZM22.867 86.0777H27.6626C30.0066 86.0777 31.4982 84.8272 31.4982 82.897C31.4982 80.8042 30.059 79.6888 27.635 79.6888H22.867V86.0777ZM47.4782 96C41.7502 96 37.7549 91.5689 37.7549 86.2142C37.7549 80.8057 41.804 76.3194 47.532 76.3194C53.26 76.3194 57.2554 80.7505 57.2554 86.1053C57.2554 91.5138 53.2063 96 47.4782 96ZM47.532 92.9283C51.2354 92.9283 53.8191 89.9103 53.8191 86.2127C53.8191 82.4613 51.1817 79.3896 47.4782 79.3896C43.7748 79.3896 41.1911 82.4062 41.1911 86.1038C41.1925 89.8552 43.83 92.9283 47.532 92.9283ZM67.1094 95.8097L59.3569 76.6447H62.9804L68.601 91.2698L74.1954 76.6447H77.7391L69.9865 95.8097H67.1094V95.8097ZM80.8573 95.6732V76.6447H84.1337V95.6732H80.8573ZM88.848 95.6732V76.6447H95.8003C101.66 76.6447 105.711 80.749 105.711 86.1038C105.711 91.5137 101.662 95.6732 95.8003 95.6732H88.848ZM92.1245 92.6291H95.8003C99.7158 92.6291 102.273 89.9379 102.273 86.2142C102.273 82.4352 99.7158 79.6903 95.8003 79.6903H92.1245V92.6291ZM117.06 95.9724C112.212 95.9724 109.121 93.1186 109.121 87.5997V76.6447H112.398V87.4632C112.398 90.9967 114.183 92.8993 117.113 92.8993C120.018 92.8993 121.801 91.1056 121.801 87.5982V76.6433H125.078V87.4356C125.078 93.1186 121.934 95.9724 117.06 95.9724V95.9724ZM135.838 95.9448C132.987 95.9448 130.298 94.9383 128.06 92.9007L130.03 90.5087C131.815 92.0845 133.6 92.982 135.918 92.982C137.943 92.982 139.222 92.0308 139.222 90.59C139.222 89.1769 138.477 88.442 135.013 87.6273C131.044 86.6484 128.806 85.4531 128.806 81.9458C128.806 78.6286 131.47 76.3731 135.173 76.3731C137.89 76.3731 140.049 77.2155 141.94 78.7651L140.182 81.2922C138.503 80.0141 136.826 79.3359 135.121 79.3359C133.202 79.3359 132.084 80.3424 132.084 81.5914C132.084 83.1135 132.937 83.767 136.506 84.6355C140.449 85.6143 142.5 87.0551 142.5 90.2081C142.499 93.8244 139.754 95.9448 135.838 95.9448ZM155.814 95.6674H146.497V75.0937H155.522C157.834 75.0937 159.629 75.7429 160.759 76.896C161.635 77.7892 162.086 78.8813 162.086 80.2436V80.3031C162.086 82.7198 160.862 83.9587 158.907 84.9957C161.415 85.87 163.228 87.0609 163.228 90.0425V90.1021C163.228 93.6951 160.341 95.6674 155.814 95.6674V95.6674ZM149.702 78.0128V83.905H154.788C157.132 83.905 158.821 82.9537 158.821 80.8986V80.8391C158.821 79.0614 157.41 78.0128 155.053 78.0128H149.702V78.0128ZM149.702 86.676V92.7468H155.843C158.336 92.7468 159.963 91.7345 159.963 89.7114V89.6518C159.963 87.7435 158.45 86.676 155.58 86.676H149.702V86.676ZM165.334 95.6732L173.539 76.5082H176.576L184.782 95.6732H181.32L179.429 91.0795H170.61L168.693 95.6732H165.334V95.6732ZM171.808 88.1167H178.229L175.005 80.505L171.808 88.1167ZM187.707 95.6732V76.6447H190.744L200.733 89.8014V76.6447H203.957V95.6732H201.214L190.93 82.136V95.6732H187.707Z" fill="white"/>
<path fill-rule="evenodd" clip-rule="evenodd" d="M86.4444 19.1497L90.9539 11.339H134.887L136.014 13.2895L139.396 19.1497H86.4444V19.1497ZM92.6792 8.35011L97.1931 0.532181H128.646L133.16 8.35011H92.6792ZM128.648 51.5628H102.952C102.455 51.5628 102.037 51.8199 101.809 52.2033L98.6788 57.6249H89.7499L97.1147 44.8691C97.4487 44.2896 98.3463 43.8205 99.1175 43.8205L133.112 43.8292L128.648 51.5628V51.5628ZM139.367 32.9962L134.838 40.8417H96.6339C96.1459 40.8417 95.7379 41.0828 95.5055 41.4473L92.4193 46.792H83.4903L90.8551 34.0375C91.1892 33.4581 92.0867 32.9889 92.8579 32.9889L139.367 32.9962ZM90.3236 30.0088C89.8443 30.0088 89.426 30.2658 89.198 30.6492L86.1481 35.9314H77.2191L84.5825 23.1785C84.9165 22.599 85.8141 22.1284 86.5853 22.1284L141.12 22.14L143.377 26.0482L141.091 30.0073H90.3686L90.3236 30.0088V30.0088Z" fill="#FDB813"/>
</svg>
